<?xml version="1.0" standalone="no"?><!DOCTYPE svg PUBLIC "-//W3C//DTD SVG 1.1//EN" "http://www.w3.org/Graphics/SVG/1.1/DTD/svg11.dtd"><svg t="1753790980830" class="icon" viewBox="0 0 1024 1024" version="1.1" xmlns="http://www.w3.org/2000/svg" p-id="2455" xmlns:xlink="http://www.w3.org/1999/xlink" width="200" height="200"><path d="M512 0C229.236364 0 0 229.236364 0 512s229.236364 512 512 512c282.763636 0 512-229.236364 512-512S794.763636 0 512 0zM559.104 667.042909c-37.841455 0-73.448727-20.898909-85.690182-44.637091 0 0-20.340364 82.478545-24.669091 98.397091-7.261091 26.903273-21.271273 53.76-34.257455 75.031273-18.525091 24.203636-39.889455 6.237091-42.449455-15.825455-0.837818-24.576 0.046545-53.666909 6.144-80.151273 6.749091-29.044364 45.102545-195.072 45.102545-195.072s-11.217455-22.853818-11.217455-56.645818c0-53.061818 30.114909-92.672 67.630545-92.672 31.883636 0 47.290182 24.482909 47.290182 53.76 0 32.721455-20.433455 81.687273-30.952727 127.022545-8.797091 37.981091 18.664727 68.933818 55.342545 68.933818 66.420364 0 111.197091-87.133091 111.197091-190.324364 0-78.475636-51.758545-137.169455-145.92-137.169455-106.356364 0-172.637091 80.989091-172.637091 171.426909 0 31.185455 8.983273 53.201455 23.133091 70.190545 6.469818 7.819636 7.400727 10.984727 5.026909 19.968-1.675636 6.609455-5.538909 22.434909-7.121455 28.718545-2.327273 9.076364-9.541818 12.288-17.547636 8.936727-49.012364-20.433455-71.819636-75.217455-71.819636-136.750545 0-101.701818 84.014545-223.650909 250.600727-223.650909 133.864727 0 221.975273 98.909091 221.975273 205.079273C748.311273 562.129455 671.837091 667.042909 559.104 667.042909z" p-id="2456"></path></svg>