<?xml version="1.0" standalone="no"?><!DOCTYPE svg PUBLIC "-//W3C//DTD SVG 1.1//EN" "http://www.w3.org/Graphics/SVG/1.1/DTD/svg11.dtd"><svg t="1755353448526" class="icon" viewBox="0 0 1024 1024" version="1.1" xmlns="http://www.w3.org/2000/svg" p-id="5802" xmlns:xlink="http://www.w3.org/1999/xlink" width="200" height="200"><path d="M327.228763 954.744683c-5.821589 0-10.161431-1.613754-13.656021-5.078669-3.432169-3.421936-5.040806-7.720845-5.040806-13.505595 0-5.792936 1.601474-10.080589 5.040806-13.490246 3.493567-3.483334 7.824199-5.095042 13.656021-5.095042 5.809309 0 10.129708 1.610684 13.600763 5.071506 3.473101 3.443425 5.079692 7.730055 5.079692 13.512758 0 5.774517-1.613754 10.073426-5.079692 13.529131C337.358471 953.130929 333.028862 954.744683 327.228763 954.744683zM146.695037 947.58154c-6.558369 0-11.211343-1.460258-14.223956-4.464685-3.032056-3.041266-4.455475-6.204305-4.455475-9.930163 0-4.093225 1.414209-7.643074 4.450359-11.169387 2.529613-2.955308 7.310499-4.441149 14.230096-4.441149l87.236853 0c6.545066 0 11.388375 1.659803 14.804171 5.075599 5.091972 5.063319 5.091972 8.723685 5.091972 9.927093 0 3.426029-1.566682 6.782473-4.79112 10.261715-2.923586 3.137457-8.013511 4.740978-15.105023 4.740978L146.695037 947.58154zM284.71039 879.332133c-3.13234 0-5.799076-0.73678-8.15268-2.252297-2.920516-1.873674-4.504594-4.340865-5.154393-8.014534-0.747014-4.221138 2.587941-9.470699 5.517667-13.133112l0.14224-0.177032 189.494819-256.816087-47.509037-61.604056L178.38376 867.479177l-0.132006 0.197498c-4.082992 6.112208-7.363711 6.302543-8.598842 6.374174-0.567935 0.033769-1.104147 0.051165-1.620917 0.051165-3.567245 0-6.460132-0.771573-8.841366-2.359744-2.484587-1.650593-4.045129-3.959172-4.929266-7.275707-0.549515-2.055822 0.660032-4.79112 3.591805-8.136308l0.420579-0.480954 156.410306-223.981261L191.33984 451.887924c-3.657296-5.217838-5.097088-9.626241-4.281513-13.103436 1.037632-4.40431 3.007497-5.913687 4.797259-6.809079 1.683339-0.841158 3.493567-1.25048 5.536087-1.25048 1.688455 0 3.563152 0.282433 5.572926 0.839111 4.084015 1.1328 7.819083 4.748141 11.096732 10.741645l0.36532 0.669242 118.850875 162.417113 67.617004-92.199888-242.496963-342.715479-0.213871-0.267083c-4.239558-5.299703-5.216815-8.791224-4.716418-10.293437 1.207501-3.63069 3.0208-6.15314 5.708002-7.938809 1.980097-1.320065 4.125971-1.929955 6.769171-1.929955 0.744967 0 1.534959 0.051165 2.348488 0.151449 3.190669 0.403183 5.587252 1.924839 7.743358 4.933359l243.253186 334.001003 246.564605-337.142553c2.724041-3.059686 5.747911-4.532223 9.752108-4.761444 0.478907-0.025583 0.976234-0.040932 1.468444-0.040932 3.991917 0 7.284917 0.933255 10.066263 2.851954 3.015683 2.096754 5.107321 5.204535 6.359848 9.477862 0.633427 2.164293 1.044796 5.678326-2.615571 11.288091L437.554474 513.118474l47.131437 62.818721 321.835939-424.11437c4.662183-5.975085 8.748245-6.859221 11.419074-7.004531 0.533143-0.027629 1.084705-0.042979 1.626034-0.042979 4.498454 0 8.249895 1.003863 11.470239 3.068895 1.90028 1.223874 4.596691 3.515057 5.841032 9.109472 0.808412 3.641947-0.870834 8.103562-4.992711 13.256932L501.706563 598.943165l189.443653 256.746502 0.090051 0.115634c3.319605 4.269233 4.647857 7.855922 3.946892 10.657734-0.905626 3.622504-2.729158 6.148024-5.910617 8.188496-3.78521 2.438539-8.268314 3.616364-13.723559 3.616364-3.971451 0-6.797823-1.489934-9.43693-4.978385L484.8435 623.079888 302.288744 869.451088c-4.517897 5.611811-9.168824 8.831132-13.82589 9.568936C287.151999 879.227756 285.889239 879.332133 284.71039 879.332133zM788.836049 99.260701c-6.567579 0-11.216459-1.456165-14.2127-4.452405-3.090385-3.090385-4.467755-6.157233-4.467755-9.943466 0-4.084015 1.417279-7.636934 4.459568-11.181667 2.52245-2.938935 7.30743-4.428869 14.219863-4.428869l87.236853 0c6.547113 0 11.398608 1.663896 14.8318 5.087878 5.079692 5.066389 5.079692 8.716522 5.079692 9.915837 0 3.435239-1.562589 6.788613-4.779863 10.250458-2.934842 3.149736-8.030907 4.753257-15.131629 4.753257L788.836049 99.261725z" p-id="5803"></path></svg>