<?xml version="1.0" standalone="no"?><!DOCTYPE svg PUBLIC "-//W3C//DTD SVG 1.1//EN" "http://www.w3.org/Graphics/SVG/1.1/DTD/svg11.dtd"><svg t="1755353550338" class="icon" viewBox="0 0 1024 1024" version="1.1" xmlns="http://www.w3.org/2000/svg" p-id="7754" xmlns:xlink="http://www.w3.org/1999/xlink" width="200" height="200"><path d="M512 245.6c-145.4 0-263.6 118.2-263.8 263.6 0 49.8 14 98.4 40.4 140.2l6.2 10-26.6 97.2 99.8-26.2 9.6 5.8c40.4 24 86.8 36.8 134.2 36.8h0.2c145.2 0 266.6-118.2 266.6-263.6 0-70.4-30.4-136.6-80.2-186.4-50-50-116-77.4-186.4-77.4z m155 376.8c-6.6 18.6-38.2 35.4-53.4 37.6-25.2 3.8-44.8 1.8-95-19.8-79.4-34.4-131.4-114.4-135.4-119.6-4-5.2-32.4-43-32.4-82s20.4-58.2 27.8-66.2c7.2-8 15.8-10 21.2-10 5.2 0 10.6 0 15.2 0.2 4.8 0.2 11.4-1.8 17.8 13.6 6.6 15.8 22.4 54.8 24.4 58.8s3.4 8.6 0.6 13.8c-15.2 30.4-31.4 29.2-23.2 43.2 30.6 52.6 61.2 70.8 107.8 94.2 8 4 12.6 3.4 17.2-2 4.6-5.2 19.8-23.2 25-31 5.2-8 10.6-6.6 17.8-4 7.2 2.6 46.2 21.8 54.2 25.8s13.2 6 15.2 9.2c1.8 3.8 1.8 19.8-4.8 38.2zM864 64H160C107 64 64 107 64 160v704c0 53 43 96 96 96h704c53 0 96-43 96-96V160c0-53-43-96-96-96zM511.8 826.4c-53.2 0-105.4-13.4-151.6-38.6L192 832l45-164.4c-27.8-48-42.4-102.6-42.4-158.6C194.8 334.2 337 192 511.8 192c84.8 0 164.4 33 224.4 93 59.8 60 95.8 139.6 95.8 224.4 0 174.8-145.4 317-320.2 317z" p-id="7755"></path></svg>