<?xml version="1.0" standalone="no"?><!DOCTYPE svg PUBLIC "-//W3C//DTD SVG 1.1//EN" "http://www.w3.org/Graphics/SVG/1.1/DTD/svg11.dtd"><svg t="1753788506530" class="icon" viewBox="0 0 1024 1024" version="1.1" xmlns="http://www.w3.org/2000/svg" p-id="2458" xmlns:xlink="http://www.w3.org/1999/xlink" width="200" height="200"><path d="M612.864 782.848v-104.448c0-22.016-6.656-33.28-19.456-33.28-7.68 0-14.848 3.584-22.016 10.752v148.992c7.168 7.168 14.336 10.752 22.016 10.752 13.312 0 19.456-11.264 19.456-32.768z m122.88-81.408h44.032v-22.528c0-22.528-7.168-33.792-22.016-33.792s-22.016 11.264-22.016 33.792v22.528z m-380.928-177.152v46.592H301.568v281.6h-49.152v-281.6H200.704v-46.592h154.112z m134.144 83.968v244.736h-44.544v-26.624c-17.408 19.968-34.304 30.208-50.688 30.208-14.848 0-24.064-6.144-28.16-18.432-2.56-7.168-4.096-18.944-4.096-35.84V609.28h44.032v179.712c0 10.752 0 16.384 0.512 17.408 0.512 6.656 3.584 9.728 9.728 9.728 8.704 0 18.432-6.656 28.16-20.48V609.28l45.056-1.024z m167.936 74.24v97.28c0 23.04-1.536 39.424-4.608 48.64-5.12 18.432-16.896 28.16-35.328 28.16-15.36 0-30.72-9.216-45.056-27.136v24.064H527.36v-328.704h44.544v107.52c14.336-17.92 29.184-26.624 45.056-26.624 18.432 0 30.208 9.216 35.328 28.16 3.072 8.192 4.608 25.088 4.608 48.64zM824.32 768v6.144c0 12.8-0.512 22.528-1.536 28.672-1.536 9.728-4.608 18.432-9.728 26.624-11.776 17.92-29.696 26.624-53.248 26.624-23.04 0-40.96-8.192-53.76-25.088-9.216-11.776-13.824-31.232-13.824-57.344v-86.016c0-26.112 4.608-45.568 13.312-57.344 12.8-16.896 30.72-25.088 53.248-25.088s39.936 8.192 51.712 25.088c9.216 12.288 13.824 31.744 13.824 57.344v50.688h-88.576v43.52c0 22.528 7.68 33.792 22.528 33.792 10.752 0 17.408-5.632 19.968-17.408 0-0.512 0-2.048 0.512-4.608 0-2.56 0.512-6.144 0.512-10.752V768h45.056zM523.776 219.136v103.936c0 22.528-7.168 33.792-21.504 33.792s-21.504-11.264-21.504-33.792V219.136c0-23.04 7.168-34.816 21.504-34.816 14.336 0 21.504 11.776 21.504 34.816z m354.816 475.136c0-78.848-4.096-136.192-12.8-173.056-4.608-19.456-13.824-35.84-28.672-49.152-14.848-13.312-31.744-20.992-50.688-23.04-60.416-6.656-152.064-9.728-274.432-9.728-122.368 0-213.504 3.072-273.92 9.728-19.456 2.048-36.352 9.728-51.2 23.04-14.336 13.312-24.064 29.696-28.16 49.152-8.704 38.912-13.312 96.256-13.312 173.056 0 78.336 4.608 135.68 13.312 173.056 4.608 18.944 13.824 35.328 28.16 48.64 14.336 13.312 31.232 20.992 50.176 23.04 60.928 6.656 152.576 9.728 274.432 9.728 122.368 0 213.504-3.072 274.432-9.728 18.944-2.048 35.84-9.728 50.176-23.04 14.336-13.312 24.064-29.696 28.16-48.64 10.24-37.376 14.336-94.72 14.336-173.056zM375.808 260.608l59.904-197.12h-50.176l-33.792 130.048-35.328-130.048H264.704l15.872 46.08 15.36 46.08c15.36 45.568 25.6 80.896 30.72 105.472v133.12h49.152V260.608zM568.32 314.368V227.84c0-25.6-4.608-45.056-13.824-57.856-12.8-16.896-30.208-25.088-51.712-25.088-22.528 0-39.936 8.192-51.712 25.088-9.216 12.8-13.824 32.256-13.824 57.856v86.528c0 25.6 4.608 45.056 13.824 57.856 11.776 16.896 29.184 25.088 51.712 25.088 22.016 0 38.912-8.192 51.712-25.088 9.216-11.776 13.824-31.232 13.824-57.856zM688.64 394.24h44.544V147.968h-44.544v188.416c-9.728 13.824-18.944 20.48-28.16 20.48-6.656 0-10.24-3.584-10.752-10.752-0.512-1.024-0.512-6.656-0.512-17.408V147.968h-44.544V343.04c0 16.384 1.536 28.672 4.096 36.864 5.12 11.776 14.336 17.92 28.672 17.92 15.872 0 33.28-10.24 51.2-30.208V394.24zM1024 192v639.488c0 52.736-18.944 98.304-56.32 135.68-37.376 37.376-82.944 56.32-135.68 56.32H192.512c-52.736 0-98.304-18.944-135.68-56.32s-56.32-82.944-56.32-135.68V192c0-52.736 18.944-98.304 56.32-135.68S139.776 0 192.512 0h639.488c52.736 0 98.304 18.944 135.68 56.32s56.32 82.432 56.32 135.68z" p-id="2459"></path></svg>